<?xml version="1.0" encoding="utf-8"?>
<!-- Generator: Adobe Illustrator 22.0.1, SVG Export Plug-In . SVG Version: 6.00 Build 0)  -->
<svg version="1.1" xmlns="http://www.w3.org/2000/svg" xmlns:xlink="http://www.w3.org/1999/xlink" x="0px" y="0px"
	 viewBox="0 0 512 512" style="enable-background:new 0 0 512 512;" xml:space="preserve">
<style type="text/css">
	.st0{fill:#7585F0;stroke:#000000;stroke-width:20;stroke-linecap:round;stroke-linejoin:round;stroke-miterlimit:10;}
	.st1{fill:none;stroke:#000000;stroke-width:20;stroke-linecap:round;stroke-linejoin:round;stroke-miterlimit:10;}
	.st2{fill:#FFFFFF;}
	.st3{fill:#E4B75C;stroke:#000000;stroke-width:20;stroke-linecap:round;stroke-linejoin:round;stroke-miterlimit:10;}
	.st4{fill:#DE5A5A;stroke:#000000;stroke-width:20;stroke-linecap:round;stroke-linejoin:round;stroke-miterlimit:10;}
	.st5{fill:#D4F4FF;}
	.st6{fill:#D4F4FF;stroke:#000000;stroke-width:20;stroke-linecap:round;stroke-linejoin:round;stroke-miterlimit:10;}
	.st7{fill:#F2DF98;stroke:#000000;stroke-width:20;stroke-linecap:round;stroke-linejoin:round;stroke-miterlimit:10;}
	.st8{fill:#FFFFFF;stroke:#000000;stroke-width:20;stroke-linecap:round;stroke-linejoin:round;stroke-miterlimit:10;}
	.st9{fill:#87BF8C;stroke:#000000;stroke-width:20;stroke-linecap:round;stroke-linejoin:round;stroke-miterlimit:10;}
	.st10{fill:#7585F0;}
	.st11{fill:#EDD4B4;stroke:#000000;stroke-width:20;stroke-linecap:round;stroke-linejoin:round;stroke-miterlimit:10;}
	.st12{fill:#E4B75C;}
	.st13{fill:#AACF9A;stroke:#000000;stroke-width:20;stroke-linecap:round;stroke-linejoin:round;stroke-miterlimit:10;}
	.st14{fill:#E8C673;stroke:#000000;stroke-width:20;stroke-linecap:round;stroke-linejoin:round;stroke-miterlimit:10;}
	.st15{fill:#F2DF98;}
	.st16{fill:#D0524E;stroke:#000000;stroke-width:20;stroke-linecap:round;stroke-linejoin:round;stroke-miterlimit:10;}
	.st17{fill:#87BF8C;}
	.st18{fill:#AACF9A;}
	.st19{fill:#DE5A5A;}
	.st20{fill:#E8C673;}
	.st21{fill:#7ACBAA;}
	.st22{fill:#EFCDC2;}
	.st23{fill:#6B7DFA;stroke:#000000;stroke-width:20;stroke-linecap:round;stroke-linejoin:round;stroke-miterlimit:10;}
</style>
<g id="GUIDELINES">
</g>
<g id="ICON_1_">
	<g>
		<g>
			<g>
				<path class="st8" d="M308.4,119.3L308.4,119.3c0-18.6-5.4-36.8-15.5-52.4l-3.4-5.2h-67l-3.4,5.2c-10.1,15.6-15.5,33.8-15.5,52.4
					v0"/>
				<g>
					<path class="st12" d="M256,127.8c-7-9.3-18.1-15.3-30.6-15.3c-8.1,0-15.6,2.5-21.8,6.8v227.2H256"/>
					<line class="st1" x1="203.6" y1="346.6" x2="256" y2="346.6"/>
					<path class="st1" d="M256,127.8c-7-9.3-18.1-15.3-30.6-15.3c-8.1,0-15.6,2.5-21.8,6.8v185.8"/>
					<path class="st7" d="M256,199.1v147.4h52.4V119.3c-6.2-4.3-13.7-6.8-21.8-6.8c-12.5,0-23.6,6-30.6,15.3"/>
				</g>
				<polygon class="st0" points="222.5,61.7 289.5,61.7 256,10.1 				"/>
			</g>
			<rect x="203.6" y="346.6" class="st8" width="104.9" height="48.5"/>
		</g>
		<g>
			<g>
				<g>
					<path class="st13" d="M479,493.1c1-4.5,1.5-9.2,1.5-14c0-35.1-28.4-63.5-63.5-63.5c-30.2,0-55.6,21.1-62,49.4
						c-11.5-11.8-27.6-19.1-45.4-19.1c-22.6,0-42.4,11.8-53.7,29.5c-11.3-17.7-31.1-29.5-53.7-29.5c-17.8,0-33.9,7.3-45.4,19.1
						c-6.4-28.3-31.7-49.4-62-49.4c-35.1,0-63.5,28.4-63.5,63.5c0,4.8,0.5,9.5,1.5,14"/>
				</g>
			</g>
			<path class="st4" d="M252.7,470.8h6.5c11.3-14.7,28.9-24.4,48.8-24.9c0.3-1.6,0.4-3.2,0.4-4.9v-46H203.6v46
				c0,1.7,0.1,3.3,0.4,4.9C223.8,446.5,241.4,456.1,252.7,470.8z"/>
			<line class="st1" x1="297.6" y1="501.9" x2="502" y2="501.9"/>
			<line class="st1" x1="10" y1="501.9" x2="177.7" y2="501.9"/>
		</g>
		<g>
			<path class="st9" d="M394.1,326.2c-29.5,29.5-84.8,22-84.8,22s-7.5-55.3,22-84.8s84.8-22,84.8-22S423.6,296.7,394.1,326.2z"/>
			<line class="st1" x1="311.5" y1="346.6" x2="348.2" y2="309.9"/>
		</g>
		<g>
			<path class="st9" d="M117.9,252.2c29.5,29.5,84.8,22,84.8,22s7.5-55.3-22-84.8s-84.8-22-84.8-22S88.4,222.7,117.9,252.2z"/>
			<line class="st1" x1="200.5" y1="272.6" x2="163.8" y2="235.9"/>
		</g>
	</g>
</g>
</svg>
